<mxfile host="app.diagrams.net" modified="2024-09-22T20:46:30.408Z" agent="Mozilla/5.0 (Windows NT 10.0; Win64; x64) AppleWebKit/537.36 (KHTML, like Gecko) Chrome/129.0.0.0 Safari/537.36" etag="HCuAoZO7XYXYiW33dsfM" version="24.4.4" type="device">
  <diagram name="Page-1" id="2YB0a_8kLWIg8pmTTx7X">
    <mxGraphModel dx="996" dy="458" grid="1" gridSize="10" guides="1" tooltips="1" connect="1" arrows="1" fold="1" page="1" pageScale="1" pageWidth="850" pageHeight="1100" math="0" shadow="0">
      <root>
        <mxCell id="0" />
        <mxCell id="1" parent="0" />
        <mxCell id="hpPRqGfmqb4JSjOcatLt-18" value="" style="rounded=0;whiteSpace=wrap;html=1;" vertex="1" parent="1">
          <mxGeometry x="10" y="430" width="750" height="330" as="geometry" />
        </mxCell>
        <mxCell id="hpPRqGfmqb4JSjOcatLt-5" value="Player Class" style="swimlane;whiteSpace=wrap;html=1;" vertex="1" parent="1">
          <mxGeometry x="120" y="120" width="210" height="270" as="geometry" />
        </mxCell>
        <mxCell id="hpPRqGfmqb4JSjOcatLt-8" value="&lt;font style=&quot;font-size: 18px; background-color: rgb(102, 178, 255);&quot;&gt;Attributes:&lt;/font&gt;&lt;div&gt;&lt;span style=&quot;font-size: 18px; background-color: rgb(102, 178, 255);&quot;&gt;----------------------------&lt;br&gt;&lt;/span&gt;&lt;div&gt;&lt;font style=&quot;background-color: rgb(102, 178, 255);&quot; size=&quot;3&quot;&gt;name: str&lt;/font&gt;&lt;/div&gt;&lt;div&gt;&lt;font style=&quot;background-color: rgb(102, 178, 255);&quot; size=&quot;3&quot;&gt;score: int&lt;/font&gt;&lt;/div&gt;&lt;div&gt;&lt;font style=&quot;background-color: rgb(102, 178, 255);&quot; size=&quot;3&quot;&gt;lives: int&lt;/font&gt;&lt;/div&gt;&lt;div&gt;&lt;br&gt;&lt;/div&gt;&lt;/div&gt;" style="text;html=1;align=center;verticalAlign=middle;resizable=0;points=[];autosize=1;strokeColor=none;fillColor=none;" vertex="1" parent="hpPRqGfmqb4JSjOcatLt-5">
          <mxGeometry x="10" y="30" width="190" height="130" as="geometry" />
        </mxCell>
        <mxCell id="hpPRqGfmqb4JSjOcatLt-10" value="&lt;div&gt;&lt;font style=&quot;font-size: 18px;&quot;&gt;Methods&lt;/font&gt;&lt;/div&gt;&lt;div&gt;&lt;font size=&quot;3&quot;&gt;----------------------&lt;/font&gt;&lt;/div&gt;&lt;font style=&quot;background-color: rgb(102, 178, 255);&quot; size=&quot;3&quot;&gt;Weakness:&lt;/font&gt;&amp;nbsp;" style="text;html=1;align=center;verticalAlign=middle;resizable=0;points=[];autosize=1;strokeColor=none;fillColor=none;" vertex="1" parent="hpPRqGfmqb4JSjOcatLt-5">
          <mxGeometry x="35" y="170" width="140" height="70" as="geometry" />
        </mxCell>
        <mxCell id="hpPRqGfmqb4JSjOcatLt-6" value="Computer Class" style="swimlane;whiteSpace=wrap;html=1;" vertex="1" parent="1">
          <mxGeometry x="520" y="120" width="200" height="270" as="geometry" />
        </mxCell>
        <mxCell id="hpPRqGfmqb4JSjOcatLt-9" value="&lt;font style=&quot;font-size: 18px;&quot;&gt;Methods:&lt;/font&gt;&lt;div&gt;&lt;font size=&quot;3&quot;&gt;-------------------&lt;br&gt;&lt;/font&gt;&lt;div&gt;&lt;font size=&quot;3&quot;&gt;ask:&lt;/font&gt;&lt;/div&gt;&lt;div&gt;&lt;font size=&quot;3&quot;&gt;random_fetch:&lt;/font&gt;&lt;/div&gt;&lt;div&gt;&lt;font size=&quot;3&quot;&gt;refree:&lt;/font&gt;&lt;/div&gt;&lt;div&gt;&lt;font size=&quot;3&quot;&gt;record:&amp;nbsp;&lt;/font&gt;&lt;/div&gt;&lt;/div&gt;" style="text;html=1;align=center;verticalAlign=middle;resizable=0;points=[];autosize=1;strokeColor=none;fillColor=none;" vertex="1" parent="hpPRqGfmqb4JSjOcatLt-6">
          <mxGeometry x="35" y="140" width="130" height="130" as="geometry" />
        </mxCell>
        <mxCell id="hpPRqGfmqb4JSjOcatLt-12" value="WeaknessDB" style="swimlane;whiteSpace=wrap;html=1;" vertex="1" parent="1">
          <mxGeometry x="390" y="500" width="330" height="200" as="geometry" />
        </mxCell>
        <mxCell id="hpPRqGfmqb4JSjOcatLt-13" value="&lt;span style=&quot;background-color: rgb(102, 178, 255);&quot;&gt;name, country1, country2, country3, ..., country5&lt;/span&gt;" style="rounded=1;whiteSpace=wrap;html=1;" vertex="1" parent="hpPRqGfmqb4JSjOcatLt-12">
          <mxGeometry x="25" y="40" width="265" height="30" as="geometry" />
        </mxCell>
        <mxCell id="hpPRqGfmqb4JSjOcatLt-14" value="record" style="swimlane;whiteSpace=wrap;html=1;" vertex="1" parent="1">
          <mxGeometry x="80" y="500" width="200" height="200" as="geometry" />
        </mxCell>
        <mxCell id="hpPRqGfmqb4JSjOcatLt-15" value="Name, Score" style="rounded=1;whiteSpace=wrap;html=1;" vertex="1" parent="hpPRqGfmqb4JSjOcatLt-14">
          <mxGeometry x="40" y="40" width="120" height="20" as="geometry" />
        </mxCell>
        <mxCell id="hpPRqGfmqb4JSjOcatLt-16" value="Highest, value" style="rounded=1;whiteSpace=wrap;html=1;" vertex="1" parent="hpPRqGfmqb4JSjOcatLt-14">
          <mxGeometry x="40" y="80" width="120" height="20" as="geometry" />
        </mxCell>
        <mxCell id="hpPRqGfmqb4JSjOcatLt-17" value="Name1, score1" style="rounded=1;whiteSpace=wrap;html=1;" vertex="1" parent="hpPRqGfmqb4JSjOcatLt-14">
          <mxGeometry x="40" y="120" width="120" height="30" as="geometry" />
        </mxCell>
      </root>
    </mxGraphModel>
  </diagram>
</mxfile>
